#N canvas 778 146 841 522 10;
#X obj 57 63 adc~;
#X obj 57 126 dac~;
#X obj 130 153 readsf~;
#X msg 266 119 stop;
#X floatatom 344 173 5 0 0 0 - #0-master-volume -, f 5;
#N canvas 307 376 227 296 volume 0;
#X obj 46 24 inlet~;
#X obj 46 159 *~;
#X obj 64 93 dbtorms;
#X msg 64 114 \$1 40;
#X obj 64 135 line~;
#X obj 64 72 r \$0-master-volume;
#X obj 46 203 outlet~;
#X connect 0 0 1 0;
#X connect 1 0 6 0;
#X connect 2 0 3 0;
#X connect 3 0 4 0;
#X connect 4 0 1 1;
#X connect 5 0 2 0;
#X restore 229 238 pd volume;
#X obj 203 175 hsl 128 15 0 100 0 0 \$0-master-volume \$0-master-volume-set
master-volume -2 -8 0 12 -228856 -1 -1 0 1;
#X obj 466 262 list trim;
#X obj 464 296 netsend -u -b;
#X obj 444 231 list prepend send;
#X obj 594 83 oscparse;
#X obj 594 60 netreceive -u -b;
#X obj 566 223 loadbang;
#X obj 594 1 loadbang;
#X obj 511 22 random 100;
#X floatatom 514 91 5 0 0 0 - - -, f 5;
#X obj 514 66 / 100;
#X floatatom 513 44 5 0 0 0 - - -, f 5;
#X obj 445 11 metro 100;
#X msg 326 6 bang;
#X msg 594 27 listen 34567;
#X msg 339 32 stop;
#X obj 355 57 loadbang;
#X msg 355 80 set /audio/brightness;
#X floatatom 83 236 5 0 0 0 - - -, f 5;
#X msg 127 119 open ./ed.wav \, start;
#X obj 81 263 dbtorms;
#X floatatom 79 293 5 0 0 0 - - -, f 5;
#X obj 83 212 env~ 16384;
#X obj 228 282 dac~;
#X obj 149 296 loadbang;
#X obj 151 369 oscformat;
#X msg 152 332 set /audio/volume;
#N canvas 101 536 626 376 freq 1;
#X obj 23 72 readsf~;
#X msg 159 38 stop;
#X msg 20 38 open ./ed.wav \, start;
#X obj 103 109 bng 15 250 50 0 empty empty empty 17 7 0 10 -262144
-1 -1;
#X obj 158 166 tabwrite~ bins;
#X msg 173 116 set bins;
#N canvas 0 50 450 250 (subpatch) 0;
#X array bins 16 float 3;
#A 0 0.0343943 0.0357981 0.0379876 0.040454 0.0434966 0.0492735 0.0553008
0.0606119 0.064098 0.0666242 0.0682474 0.0669728 0.0642044 0.0619078
0.0607525 0.0610746;
#X coords 0 1 16 -1 200 140 1;
#X restore 243 17 graph;
#X obj 23 153 *~;
#X obj 54 153 *~;
#X obj 23 183 sqrt~;
#X obj 20 18 block~ 32;
#X obj 154 243 zexy;
#X obj 253 178 pack~;
#X obj 253 292 spigot;
#X obj 253 346 print;
#X msg 315 267 1;
#X msg 350 266 0;
#X obj 252 319 t l b;
#X obj 280 206 list-normalize;
#X obj 269 235 cyclone/zl slice 16;
#X obj 412 199 tgl 15 0 empty empty empty 17 7 0 10 -262144 -1 -1 0
1;
#X obj 451 172 inlet;
#X obj 333 350 outlet;
#X obj 94 71 inlet~;
#X obj 22 96 +~;
#X obj 409 233 metro 100;
#X obj 23 120 rfft~;
#X connect 0 0 24 0;
#X connect 1 0 0 0;
#X connect 2 0 0 0;
#X connect 3 0 4 0;
#X connect 5 0 4 0;
#X connect 7 0 9 0;
#X connect 8 0 9 0;
#X connect 9 0 4 0;
#X connect 9 0 12 0;
#X connect 12 0 18 0;
#X connect 12 0 19 0;
#X connect 13 0 17 0;
#X connect 15 0 13 1;
#X connect 16 0 13 1;
#X connect 17 0 14 0;
#X connect 17 0 22 0;
#X connect 17 1 16 0;
#X connect 19 0 13 0;
#X connect 20 0 25 0;
#X connect 21 0 20 0;
#X connect 23 0 24 1;
#X connect 24 0 26 0;
#X connect 25 0 15 0;
#X connect 25 0 3 0;
#X connect 26 0 7 0;
#X connect 26 0 7 1;
#X connect 26 1 8 0;
#X connect 26 1 8 1;
#X restore 410 376 pd freq;
#X obj 438 114 oscformat;
#X obj 339 401 oscformat;
#X obj 319 222 loadbang;
#X obj 450 348 tgl 15 0 empty empty empty 17 7 0 10 -262144 -1 -1 0
1;
#X msg 322 258 set bins;
#X text 674 265 0.127 is photon;
#X msg 567 270 disconnect;
#X obj 412 351 adc~;
#X obj 594 183 send freq;
#X obj 448 319 receive freq;
#X obj 594 107 list trim;
#X obj 594 133 route listen;
#X obj 594 154 atoi;
#X obj 664 159 print;
#X obj 101 28 loadbang;
#X msg 101 51 \; pd dsp 1;
#X msg 566 248 connect 192.168.86.127 34568;
#X connect 0 0 1 1;
#X connect 0 0 1 0;
#X connect 2 0 5 0;
#X connect 3 0 2 0;
#X connect 5 0 29 0;
#X connect 5 0 29 1;
#X connect 5 0 28 0;
#X connect 7 0 8 0;
#X connect 9 0 7 0;
#X connect 10 0 44 0;
#X connect 11 0 10 0;
#X connect 12 0 50 0;
#X connect 13 0 20 0;
#X connect 14 0 17 0;
#X connect 15 0 34 0;
#X connect 16 0 15 0;
#X connect 17 0 16 0;
#X connect 18 0 14 0;
#X connect 19 0 18 0;
#X connect 20 0 11 0;
#X connect 21 0 18 0;
#X connect 22 0 23 0;
#X connect 23 0 34 0;
#X connect 24 0 26 0;
#X connect 25 0 2 0;
#X connect 26 0 27 0;
#X connect 27 0 31 0;
#X connect 28 0 24 0;
#X connect 30 0 32 0;
#X connect 32 0 31 0;
#X connect 33 0 35 0;
#X connect 34 0 9 0;
#X connect 35 0 9 0;
#X connect 36 0 38 0;
#X connect 37 0 33 1;
#X connect 38 0 35 0;
#X connect 40 0 8 0;
#X connect 41 0 33 0;
#X connect 43 0 37 0;
#X connect 44 0 45 0;
#X connect 45 0 46 0;
#X connect 45 1 47 0;
#X connect 46 0 42 0;
#X connect 48 0 49 0;
#X connect 50 0 8 0;
