#N canvas 261 295 787 343 10;
#X obj 56 52 adc~;
#X obj 57 126 dac~;
#X obj 138 53 timbreID;
#X msg 127 119 open ./ed.wav \, start;
#X obj 127 153 readsf~;
#X msg 266 119 stop;
#X floatatom 348 166 5 0 0 0 - #0-master-volume -, f 5;
#N canvas 306 378 227 296 volume 0;
#X obj 46 24 inlet~;
#X obj 46 159 *~;
#X obj 64 93 dbtorms;
#X msg 64 114 \$1 40;
#X obj 64 135 line~;
#X obj 46 234 dac~;
#X obj 64 72 r \$0-master-volume;
#X connect 0 0 1 0;
#X connect 1 0 5 0;
#X connect 1 0 5 1;
#X connect 2 0 3 0;
#X connect 3 0 4 0;
#X connect 4 0 1 1;
#X connect 6 0 2 0;
#X restore 229 238 pd volume;
#X obj 203 166 hsl 128 15 0 100 0 0 \$0-master-volume \$0-master-volume-set
master-volume -2 -8 0 12 -228856 -1 -1 0 1;
#X msg 440 88 1 2 3;
#X obj 441 115 oscformat test;
#X obj 438 183 list trim;
#X obj 440 223 netsend -u -b;
#X obj 439 145 list prepend send;
#X msg 420 47 1 hey there;
#X obj 567 84 oscparse;
#X obj 567 116 print;
#X obj 567 60 netreceive -u -b;
#X msg 567 27 listen 34568;
#X obj 563 151 loadbang;
#X obj 567 1 loadbang;
#X msg 563 185 connect 127.0.0.1 34567;
#X connect 0 0 1 0;
#X connect 0 0 1 1;
#X connect 3 0 4 0;
#X connect 4 0 7 0;
#X connect 5 0 4 0;
#X connect 9 0 10 0;
#X connect 10 0 13 0;
#X connect 11 0 12 0;
#X connect 13 0 11 0;
#X connect 14 0 10 0;
#X connect 15 0 16 0;
#X connect 17 0 15 0;
#X connect 18 0 17 0;
#X connect 19 0 21 0;
#X connect 20 0 18 0;
#X connect 21 0 12 0;
